HIERARCHY
ROOT SpineBase
{
  OFFSET 0.000000 0.000000 0.000000
  CHANNELS 6 Xposition Yposition Zposition Zrotation Xrotation Yrotation
  JOINT SpineMid
  {
    OFFSET -0.000000 30.708997 0.000000
    CHANNELS 3 Zrotation Xrotation Yrotation
    JOINT SpineShoulder
    {
      OFFSET -0.110008 22.854632 -0.737312
      CHANNELS 3 Zrotation Xrotation Yrotation
      JOINT Neck
      {
        OFFSET -0.091351 7.574716 -0.573706
        CHANNELS 3 Zrotation Xrotation Yrotation
        JOINT Head
        {
          OFFSET 3.024034 13.288963 0.371280
          CHANNELS 3 Zrotation Xrotation Yrotation
          End Site
          {
            OFFSET 0 0 0
          }
        }
      }
      JOINT ShoulderLeft
      {
        OFFSET -16.292176 -2.405979 -3.145995
        CHANNELS 3 Zrotation Xrotation Yrotation
        JOINT ElbowLeft
        {
          OFFSET -4.081085 -24.725059 -1.452268
          CHANNELS 3 Zrotation Xrotation Yrotation
          JOINT WristLeft
          {
            OFFSET 0.890615 -20.264739 -6.565831
            CHANNELS 3 Zrotation Xrotation Yrotation
            JOINT HandLeft
            {
              OFFSET 1.885290 -4.287034 0.454342
              CHANNELS 3 Zrotation Xrotation Yrotation
              JOINT HandTipLeft
              {
                OFFSET 0.284577 -6.395164 -1.229226
                CHANNELS 3 Zrotation Xrotation Yrotation
                End Site
                {
                  OFFSET 0 0 0
                }
              }
              JOINT ThumbLeft
              {
                OFFSET 3.317935 1.882968 -1.804137
                CHANNELS 3 Zrotation Xrotation Yrotation
                End Site
                {
                  OFFSET 0 0 0
                }
              }
            }
          }
        }
      }
      JOINT ShoulderRight
      {
        OFFSET 16.099869 -4.576403 0.601287
        CHANNELS 3 Zrotation Xrotation Yrotation
        JOINT ElbowRight
        {
          OFFSET 3.713620 -25.785666 0.981684
          CHANNELS 3 Zrotation Xrotation Yrotation
          JOINT WristRight
          {
            OFFSET -0.671570 -20.054067 -7.323057
            CHANNELS 3 Zrotation Xrotation Yrotation
            JOINT HandRight
            {
              OFFSET -1.437079 -3.363294 -0.268670
              CHANNELS 3 Zrotation Xrotation Yrotation
              JOINT HandTipRight
              {
                OFFSET 1.047111 -5.452881 -2.400496
                CHANNELS 3 Zrotation Xrotation Yrotation
                End Site
                {
                  OFFSET 0 0 0
                }
              }
              JOINT ThumbRight
              {
                OFFSET 2.765860 1.115655 -3.896267
                CHANNELS 3 Zrotation Xrotation Yrotation
                End Site
                {
                  OFFSET 0 0 0
                }
              }
            }
          }
        }
      }
    }
  }
  JOINT HipLeft
  {
    OFFSET -6.534679 1.132359 -4.058834
    CHANNELS 3 Zrotation Xrotation Yrotation
    JOINT KneeLeft
    {
      OFFSET -8.073230 -26.757378 1.410204
      CHANNELS 3 Zrotation Xrotation Yrotation
      JOINT AnkleLeft
      {
        OFFSET -1.555970 -33.526572 4.058520
        CHANNELS 3 Zrotation Xrotation Yrotation
        JOINT FootLeft
        {
          OFFSET -6.507489 -8.892988 -7.249934
          CHANNELS 3 Zrotation Xrotation Yrotation
          End Site
          {
            OFFSET 0 0 0
          }
        }
      }
    }
  }
  JOINT HipRight
  {
    OFFSET 5.189121 0.272619 -3.156499
    CHANNELS 3 Zrotation Xrotation Yrotation
    JOINT KneeRight
    {
      OFFSET 3.614780 -28.458679 5.309024
      CHANNELS 3 Zrotation Xrotation Yrotation
      JOINT AnkleRight
      {
        OFFSET 3.644637 -31.612066 6.412730
        CHANNELS 3 Zrotation Xrotation Yrotation
        JOINT FootRight
        {
          OFFSET 2.796792 -9.067765 -7.511001
          CHANNELS 3 Zrotation Xrotation Yrotation
          End Site
          {
            OFFSET 0 0 0
          }
        }
      }
    }
  }
}
MOTION
Frames: 14
Frame Time: 0.033333
75.861039 70.173302 397.480242 -1.211242 0.354100 -10.924105 -0.111814 0.003647 10.886997 -0.028524 0.052146 -0.055706 -5.428946 2.549032 -0.258261 0.000000 0.000000 0.000000 -2.973219 0.266031 0.233056 3.916518 -3.156258 -0.102159 -3.689637 4.200646 0.555050 13.976931 -10.145307 -1.544845 0.000000 0.000000 0.000000 0.000000 0.000000 0.000000 -3.945891 2.865152 0.492099 4.550093 -2.784768 0.083834 -1.800196 -4.465758 1.516122 8.606467 -3.229098 -6.118524 0.000000 0.000000 0.000000 0.000000 0.000000 0.000000 0.709208 -1.155508 11.159878 0.737718 0.911837 -0.242688 5.531975 10.738684 -12.354952 0.000000 0.000000 0.000000 1.256398 -0.118080 10.929143 -0.737332 1.861513 0.077354 -2.030109 -1.407242 2.307204 0.000000 0.000000 0.000000
75.958118 70.133473 397.691376 -1.353094 0.365152 -11.990649 -0.151658 0.022803 11.948891 -0.041547 0.064825 -0.063728 -5.976256 2.731774 -0.253720 0.000000 0.000000 0.000000 -3.564337 -0.033494 0.317087 4.571327 -2.750831 -0.147313 -2.049652 0.528839 -1.067405 11.756595 -2.895414 -0.885529 0.000000 0.000000 0.000000 0.000000 0.000000 0.000000 -4.317909 2.880691 0.506323 4.936384 -2.686748 0.163657 1.390899 -7.563325 2.642588 2.478691 -0.138822 -5.755666 0.000000 0.000000 0.000000 0.000000 0.000000 0.000000 0.650600 -1.106378 12.194843 0.486491 1.652651 -0.297307 6.603676 8.210264 -11.594447 0.000000 0.000000 0.000000 0.852609 0.815080 12.059460 -0.304962 0.321825 -0.042977 -7.194235 -4.715439 5.267511 0.000000 0.000000 0.000000
76.046286 70.098112 397.891574 -1.469691 0.404442 -12.684889 -0.133335 0.020917 12.641007 -0.030564 0.054861 -0.067110 -6.873245 2.511404 -0.174548 0.000000 0.000000 0.000000 -3.919452 -0.223509 0.364373 4.791619 -2.467617 -0.131503 -1.250051 -0.512508 -1.524178 9.981157 -0.128657 -0.511814 0.000000 0.000000 0.000000 0.000000 0.000000 0.000000 -4.558542 2.596002 0.453351 6.169567 -3.135380 -0.047130 2.552696 -6.012998 2.536133 -5.076338 -4.046011 -3.196095 0.000000 0.000000 0.000000 0.000000 0.000000 0.000000 0.554187 -0.974273 12.822976 1.144659 0.664938 -0.147430 6.426789 6.484364 -10.279160 0.000000 0.000000 0.000000 0.812782 1.181479 12.795470 -0.149474 -0.305533 -0.091991 -5.558666 -1.202743 4.995524 0.000000 0.000000 0.000000
76.145057 70.064664 398.031151 -1.608522 0.401433 -13.403933 -0.115382 0.001556 13.356128 -0.034529 0.048246 -0.073164 -8.224365 2.844373 -0.134234 0.000000 0.000000 0.000000 -4.527277 -0.354852 0.433544 5.237755 -2.172394 -0.109082 -2.103420 -0.008519 -1.447326 11.233380 0.258442 -0.636386 0.000000 0.000000 0.000000 0.000000 0.000000 0.000000 -4.409007 1.992108 0.340589 6.231012 -3.459715 0.018638 2.980894 -0.073258 0.174707 -10.035102 -11.050237 -0.050202 0.000000 0.000000 0.000000 0.000000 0.000000 0.000000 0.489567 -0.887505 13.503314 1.339097 0.572988 -0.109416 5.814911 4.186060 -8.068067 0.000000 0.000000 0.000000 0.789972 1.545300 13.550673 -0.250545 -0.704980 -0.168654 -7.660567 0.792448 7.604970 0.000000 0.000000 0.000000
76.246587 70.031867 398.095248 -1.765662 0.357857 -13.907442 -0.099807 -0.018434 13.854224 -0.039425 0.058477 -0.080026 -9.728872 2.869148 -0.028542 0.000000 0.000000 0.000000 -5.406880 -0.391716 0.513484 6.075827 -1.941831 -0.118052 -3.064540 1.308020 -0.932177 11.761020 -3.015237 -0.752973 0.000000 0.000000 0.000000 0.000000 0.000000 0.000000 -3.904405 1.145776 0.189645 6.800234 -3.747521 -0.170079 4.188472 4.950620 -1.640234 -15.518237 -18.585578 1.275678 0.000000 0.000000 0.000000 0.000000 0.000000 0.000000 0.447672 -0.778741 13.975730 1.518952 0.503742 -0.078943 3.899488 1.232950 -4.190267 0.000000 0.000000 0.000000 0.800104 1.865493 14.079555 -0.429179 -0.913893 -0.239958 -4.467100 0.422599 5.032637 0.000000 0.000000 0.000000
76.376199 70.002658 398.194448 -1.964236 0.289389 -14.764619 -0.101017 -0.063981 14.702773 -0.046007 0.059071 -0.090362 -11.873310 4.406934 -0.017688 0.000000 0.000000 0.000000 -6.610846 -0.401757 0.628647 7.293593 -1.966947 -0.167312 -4.247659 2.200115 -0.719042 12.387027 -7.602962 -0.636136 0.000000 0.000000 0.000000 0.000000 0.000000 0.000000 -2.844023 -0.107355 -0.014744 6.633187 -3.643511 -0.269329 7.392102 9.335182 -3.810558 -21.401858 -24.624316 1.770885 0.000000 0.000000 0.000000 0.000000 0.000000 0.000000 0.480836 -0.696651 14.823847 0.847848 0.476927 -0.163585 3.638700 -0.720218 -1.661979 0.000000 0.000000 0.000000 0.787759 2.333740 14.977729 -0.600757 -1.530965 -0.364576 -3.857877 3.904632 5.821212 0.000000 0.000000 0.000000
76.505469 69.970497 398.265321 -2.315624 0.300579 -15.605836 -0.401927 0.014851 15.528371 -0.118211 0.136394 -0.118782 -13.653541 6.236499 -0.043871 0.000000 0.000000 0.000000 -6.799161 -0.660291 0.690435 8.078638 -2.158108 -0.200545 -4.391431 3.225660 -0.322195 14.022215 -12.820898 -0.885364 0.000000 0.000000 0.000000 0.000000 0.000000 0.000000 -1.816950 -1.148215 -0.110621 7.172362 -4.039774 -0.461174 9.086810 13.153546 -5.690917 -26.007979 -29.178937 1.920149 0.000000 0.000000 0.000000 0.000000 0.000000 0.000000 0.733614 -0.685981 15.673674 0.775841 0.671749 -0.199750 4.988772 2.032233 -4.789179 0.000000 0.000000 0.000000 0.963402 2.743448 15.862426 -0.718129 -1.479322 -0.393434 -2.252394 8.740762 6.071432 0.000000 0.000000 0.000000
76.584151 69.964456 398.293767 -2.826688 0.440681 -16.637693 -0.872986 0.166091 16.544268 -0.186740 0.230247 -0.156414 -14.957272 7.699848 -0.067755 0.000000 0.000000 0.000000 -7.098573 -0.878898 0.721170 9.348713 -2.827136 -0.219399 -5.170159 3.508073 -0.356203 16.448196 -15.836354 -0.767842 0.000000 0.000000 0.000000 0.000000 0.000000 0.000000 -0.799484 -1.953386 -0.113385 7.972236 -4.747865 -0.669249 9.388284 17.252587 -7.603979 -25.748740 -32.741704 2.072748 0.000000 0.000000 0.000000 0.000000 0.000000 0.000000 1.400685 -0.771839 16.754927 0.461773 0.987356 -0.277009 3.305741 2.047433 -3.238832 0.000000 0.000000 0.000000 1.416104 3.035572 16.944960 -0.892886 -0.933332 -0.369553 3.592654 12.788941 2.449168 0.000000 0.000000 0.000000
76.606913 69.958101 398.307151 -3.592054 0.790565 -17.700880 -1.348456 0.319856 17.596572 -0.219081 0.297401 -0.200334 -15.621745 9.702934 -0.162937 0.000000 0.000000 0.000000 -7.114765 -1.266396 0.723020 10.627667 -3.414156 -0.236709 -4.563745 1.821498 -1.226503 18.390783 -17.631949 -0.379205 0.000000 0.000000 0.000000 0.000000 0.000000 0.000000 -0.144206 -2.585877 -0.072230 9.243618 -5.438264 -0.858719 11.733956 17.438385 -8.192285 -26.549560 -31.375766 2.216634 0.000000 0.000000 0.000000 0.000000 0.000000 0.000000 2.288523 -0.971846 17.867356 0.423513 1.037883 -0.316910 0.099006 -1.165132 1.824138 0.000000 0.000000 0.000000 2.193630 3.295394 18.084883 -1.054371 -0.540736 -0.362075 6.251361 14.084125 0.759406 0.000000 0.000000 0.000000
76.597840 69.979599 398.272461 -4.527859 1.339268 -18.861108 -1.673864 0.435491 18.759420 -0.212304 0.353362 -0.240899 -16.239634 12.193597 -0.266022 0.000000 0.000000 0.000000 -7.294723 -1.407443 0.678672 12.009892 -4.442781 -0.150551 -2.438945 -0.173692 -2.138854 16.429135 -17.640463 0.000964 0.000000 0.000000 0.000000 0.000000 0.000000 0.000000 0.046187 -2.821328 0.025183 10.525858 -6.167131 -0.920348 13.943671 17.819141 -9.098393 -25.084837 -28.410159 2.962106 0.000000 0.000000 0.000000 0.000000 0.000000 0.000000 3.712063 -1.209175 19.125604 -0.041392 1.335032 -0.402492 1.443421 1.647281 -1.223202 0.000000 0.000000 0.000000 3.165819 3.422304 19.329941 -1.072092 -0.071963 -0.311068 6.422133 14.324894 0.784797 0.000000 0.000000 0.000000
76.278467 70.060391 398.066883 -5.796708 2.117691 -19.589852 -2.049292 0.758474 19.526209 -0.108691 0.403227 -0.280911 -15.900294 14.014352 -0.516482 0.000000 0.000000 0.000000 -7.495648 -1.840795 0.559739 13.569507 -6.168043 -0.036732 -0.273615 0.079489 -2.195481 16.708157 -18.214955 -0.128633 0.000000 0.000000 0.000000 0.000000 0.000000 0.000000 0.019579 -2.888644 0.197114 11.823182 -6.899223 -0.862528 16.288905 16.070823 -8.929025 -23.472959 -25.798260 2.651470 0.000000 0.000000 0.000000 0.000000 0.000000 0.000000 6.268724 -1.487443 20.099390 -1.305718 1.767391 -0.580500 1.800468 3.189694 -2.389365 0.000000 0.000000 0.000000 5.273669 3.287690 20.216661 -1.758536 0.303805 -0.410635 5.783044 13.077486 1.057302 0.000000 0.000000 0.000000
76.351986 70.117565 398.040139 -6.773925 3.018020 -20.858210 -2.207932 0.911086 20.853110 -0.089370 0.457661 -0.308851 -15.283644 15.851443 -0.820347 0.000000 0.000000 0.000000 -7.977135 -1.917035 0.393396 15.307609 -7.071944 0.177326 3.286734 -7.319912 -4.808962 12.428080 -11.580285 1.111140 0.000000 0.000000 0.000000 0.000000 0.000000 0.000000 -0.557173 -2.477510 0.401350 13.185708 -8.384799 -0.713424 15.502064 13.633686 -7.192286 -26.755665 -19.263360 3.727143 0.000000 0.000000 0.000000 0.000000 0.000000 0.000000 8.051842 -1.872678 21.565790 -1.999856 2.003791 -0.680909 2.119158 4.434591 -3.303624 0.000000 0.000000 0.000000 6.011612 3.211387 21.590234 -1.413316 -0.169142 -0.404747 -0.819171 11.223441 5.931396 0.000000 0.000000 0.000000
76.680925 70.165557 398.097330 -7.452470 3.992280 -22.343778 -2.062863 0.895405 22.406350 -0.146629 0.523301 -0.323872 -15.011906 16.881322 -1.098871 0.000000 0.000000 0.000000 -9.071607 -1.582124 0.196071 17.193114 -7.727959 0.523740 4.889094 -10.972798 -5.639768 10.555100 -8.546302 1.711525 0.000000 0.000000 0.000000 0.000000 0.000000 0.000000 -1.600159 -1.693704 0.615068 14.649163 -10.256656 -0.537774 12.933343 13.004224 -6.075963 -26.619968 -20.610011 3.477365 0.000000 0.000000 0.000000 0.000000 0.000000 0.000000 9.253922 -2.280675 23.201052 -2.477997 1.724161 -0.719356 2.624830 5.896042 -4.212189 0.000000 0.000000 0.000000 5.924313 3.046321 23.144816 -0.508806 -1.188388 -0.341318 1.973593 9.461222 2.998308 0.000000 0.000000 0.000000
77.169637 70.191079 398.225021 -7.929925 4.857922 -24.457289 -1.690425 0.751936 24.583966 -0.273765 0.564062 -0.337666 -14.945876 18.043022 -1.300504 0.000000 0.000000 0.000000 -11.050611 -0.824327 0.036556 19.658124 -8.233346 0.952479 4.813850 -12.726104 -5.888640 10.220882 -4.129818 1.592907 0.000000 0.000000 0.000000 0.000000 0.000000 0.000000 -2.644017 -0.827180 0.807748 15.613335 -11.792590 -0.317553 10.600210 15.518015 -6.946525 -24.191293 -22.531434 4.104713 0.000000 0.000000 0.000000 0.000000 0.000000 0.000000 10.112287 -2.633765 25.451840 -2.938315 2.017105 -0.794420 3.184812 5.318108 -3.896155 0.000000 0.000000 0.000000 5.295632 3.124874 25.320997 0.657315 -2.401403 -0.228242 -1.324510 6.132862 4.563513 0.000000 0.000000 0.000000
